<?xml version="1.0" encoding="utf-8"?>
<!-- Generator: Adobe Illustrator 24.1.0, SVG Export Plug-In . SVG Version: 6.00 Build 0)  -->
<svg version="1.1" id="Layer_1" xmlns="http://www.w3.org/2000/svg" xmlns:xlink="http://www.w3.org/1999/xlink" x="0px" y="0px"
	 viewBox="0 0 18 16" style="enable-background:new 0 0 18 16;" xml:space="preserve">
<style type="text/css">
	.st0{fill:#CCCCCC;}
</style>
<desc>Created with Sketch.</desc>
<g id="website">
	<g id="skatespot_detail" transform="translate(-947.000000, -629.000000)">
		<g id="Group-4" transform="translate(857.000000, 526.000000)">
			<g transform="translate(90.000000, 103.645189)">
				<path id="Shape" class="st0" d="M10.7,2.3V1.6H3.5H0v11h10.9H18v-1.3C13.9,11.3,10.7,7.3,10.7,2.3z M1.1,11.3V2.9h1.4
					c0.1,2.5,1,4.9,2.4,6.7c0.6,0.7,1.2,1.3,1.9,1.7H1.1L1.1,11.3z M10.9,11.3c-3.9,0-7.1-3.7-7.3-8.4h6.1c0.1,2.5,1,4.9,2.4,6.7
					c0.6,0.7,1.2,1.3,1.9,1.7H10.9z"/>
			</g>
		</g>
	</g>
</g>
</svg>
